<svg width="1600" height="1600" xmlns="http://www.w3.org/2000/svg">
 <g id="Layer_1">
  <title>Layer 1</title>
  <g stroke="null" id="svg_45">
   <!-- <rect width="1600" height="1600" fill-opacity="0.3" /> -->
   <g stroke="null" id="svg_46" class="layer">
    <title stroke="null">Layer 1</title>
    <g stroke="null" id="svg_23" transform="matrix(1.25 0 0 1.25 80 500)">
     <title stroke="null">Layer 1</title>
     <g stroke="null" id="svg_43" transform="matrix(1 0 0 1 654.172 668.359)">
      <path stroke="null" d="m-34.75721,-437.84633c-114.6,0 -218.17,13.78 -296.17,36.23l0,-5.07c-78,25.09 -127.68,59.96 -127.68,98.51c0,6.07 1.34,12.06 3.7,17.93l-7.98,14.32c0,0 -6.42,8.36 4.93,26c10.01,15.55 60.16,76.43 86.63,108.32c11.37,16.34 19.08,26.41 19.76,25.44c1.06,-1.55 -7.07,-32.23 -29.64,-67.25c-10.54,-18.8 -23.36,-43.71 -30.91,-62.12c21.08,13.35 49.19,25.45 81.19,35.87l0,-0.16c78,22.45 181.57,36.23 296.17,36.23c131.16,0 248.83,-18.05 327.83,-46.5l0,-171.25c-79,-28.45 -196.67,-46.5 -327.83,-46.5" fill="rgb(165,43,0)" fill-rule="nonzero" id="svg_44"/>
     </g>
     <g stroke="null" id="svg_41" transform="matrix(1 0 0 1 1099.87 554.94)">
      <path stroke="null" d="m-34.75721,-165.59633l-13.43,-27.83c0.07,-1.05 0.12,-2.11 0.12,-3.17c0,-31.55 -32.8,-60.62 -88,-83.9l0,167.8c25.76,-10.87 46.65,-22.99 61.59,-36.04c-4.4,17.68 -19.44,53.46 -31.43,78.61c-19.7,35.98 -26.84,67.31 -25.93,68.86c0.59,0.97 7.31,-9.4 17.23,-26.2c23.07,-32.88 66.79,-95.64 75.53,-111.63c9.89,-18.12 4.32,-26.5 4.32,-26.5" fill="rgb(165,43,0)" fill-rule="nonzero" id="svg_42"/>
     </g>
     <g stroke="null" id="svg_39" transform="matrix(1 0 0 1 1177.87 277.21)">
      <path stroke="null" d="m-34.75721,111.98367l-88.3,-65.05c-0.83,-2.89 -1.66,-5.79 -2.51,-8.66l29,-42.01c2.96,-4.28 3.56,-9.83 1.63,-14.7c-1.92,-4.85 -6.13,-8.33 -11.11,-9.18l-49.05,-8.32c-1.89,-3.88 -3.88,-7.7 -5.88,-11.49l20.6,-47.17c2.12,-4.81 1.67,-10.39 -1.14,-14.75c-2.8,-4.38 -7.55,-6.94 -12.62,-6.74l-49.77,1.8c-2.57,-3.35 -5.19,-6.68 -7.86,-9.94l11.44,-50.56c1.15,-5.13 -0.31,-10.51 -3.88,-14.24c-3.56,-3.72 -8.73,-5.25 -13.64,-4.05l-48.48,11.92c-3.14,-2.78 -6.33,-5.51 -9.56,-8.2l1.75,-51.9c0.19,-5.26 -2.26,-10.25 -6.47,-13.17c-4.2,-2.93 -9.54,-3.37 -14.14,-1.19l-45.22,21.5c-3.64,-2.09 -7.31,-4.16 -11.01,-6.16l-7.99,-51.15c-0.81,-5.18 -4.15,-9.59 -8.81,-11.6c-4.66,-2.02 -9.99,-1.36 -14.08,1.71l-40.32,30.26c-3.97,-1.32 -7.96,-2.59 -12,-3.79l-17.38,-48.51c-1.76,-4.94 -5.84,-8.57 -10.81,-9.6c-4.95,-1.01 -10.05,0.71 -13.48,4.54l-33.94,37.97c-4.1,-0.47 -8.21,-0.9 -12.33,-1.25l-26.2,-44.16c-2.66,-4.47 -7.35,-7.19 -12.4,-7.19c-5.04,0 -9.74,2.72 -12.37,7.19l-26.22,44.16c-4.12,0.35 -8.24,0.78 -12.34,1.25l-33.94,-37.97c-3.44,-3.83 -8.55,-5.55 -13.49,-4.54c-4.96,1.04 -9.04,4.66 -10.8,9.6l-17.4,48.51c-4.02,1.2 -8.01,2.48 -11.99,3.79l-40.31,-30.26c-4.1,-3.08 -9.43,-3.74 -14.1,-1.71c-4.65,2.01 -8,6.42 -8.8,11.6l-8,51.15c-3.7,2 -7.36,4.06 -11.01,6.16l-45.23,-21.5c-4.59,-2.19 -9.95,-1.74 -14.13,1.19c-4.2,2.92 -6.66,7.91 -6.47,13.17l1.74,51.9c-3.22,2.69 -6.4,5.42 -9.56,8.2l-48.47,-11.92c-4.92,-1.19 -10.08,0.33 -13.65,4.05c-3.58,3.73 -5.04,9.11 -3.88,14.24l11.41,50.56c-2.65,3.28 -5.27,6.59 -7.84,9.94l-49.77,-1.8c-5.02,-0.15 -9.82,2.36 -12.62,6.74c-2.81,4.36 -3.24,9.94 -1.15,14.75l20.62,47.17c-2,3.79 -3.99,7.61 -5.9,11.49l-49.04,8.32c-4.99,0.84 -9.19,4.31 -11.12,9.18c-1.93,4.87 -1.3,10.42 1.63,14.7l29.01,42.01c-0.22,0.75 -0.43,1.49 -0.65,2.24l-82.02,87.12c0,0 -12.56,9.85 5.73,33c16.14,20.42 98.99,101.38 142.75,143.79c18.48,21.53 31.15,34.87 32.47,33.71c2.09,-1.83 -8.87,-41 -45.28,-86.97c-28.06,-41.24 -64.47,-104.66 -55.94,-111.97c0,0 9.72,-12.34 29.21,-21.21c0.71,0.57 -0.74,-0.57 0,0c0,0 411.31,189.73 792.84,3.21c43.59,-7.82 69.97,15.53 69.97,15.53c9.1,5.27 -14.46,70.49 -33.84,113.66c-26.35,49.03 -30.21,87.28 -27.98,88.61c1.41,0.84 11,-13.75 24.68,-36.97c33.74,-47.02 97.54,-136.67 109.21,-158.44c13.24,-24.69 0,-31.6 0,-31.6" fill="rgb(247,76,0)" fill-rule="nonzero" id="svg_40"/>
     </g>
     <g stroke="null" id="svg_37" transform="matrix(1 0 0 1 795.856 464.937)">
      <path stroke="null" d="m-34.75721,44.43367c1.57,-1.34 2.4,-2.14 2.4,-2.14l-134.65,-12.51c109.9,-144.98 197.87,-28.01 207.24,-15.1l0,29.75l-74.99,0z" fill-rule="nonzero" id="svg_38"/>
     </g>
     <g stroke="null" id="svg_35" transform="matrix(1 0 0 1 278.418 211.791)">
      <path stroke="null" d="m-34.75721,137.84367c0,0 -111.1,-43.25 -129.88,-89.8c0,0 130.39,-103.71 -25.62,-213.88l-4.23,140.41c0,0 -46.22,-44.59 -44.18,-122.68c0,0 -143.78,69.18 24.47,191.58c0,0 5.68,65.7 156.98,145.01l22.46,-50.64z" fill="rgb(247,76,0)" fill-rule="nonzero" id="svg_36"/>
     </g>
     <g stroke="null" id="svg_33" transform="matrix(1 0 0 1 729.948 492.523)">
      <path stroke="null" d="m-34.75721,-202.21633c0,0 41.1,-45.01 82.21,0c0,0 32.3,60.02 0,90.02c0,0 -52.85,42.01 -82.21,0c0,0 -35.23,-33.01 0,-90.02" fill-rule="nonzero" id="svg_34"/>
     </g>
     <g stroke="null" id="svg_31" transform="matrix(1 0 0 1 777.536 422.196)">
      <path stroke="null" d="m-34.75721,-115.18633c0,17.52 -10.33,31.73 -23.07,31.73c-12.74,0 -23.07,-14.21 -23.07,-31.73c0,-17.53 10.33,-31.74 23.07,-31.74c12.74,0 23.07,14.21 23.07,31.74" fill="white" fill-rule="nonzero" id="svg_32"/>
     </g>
     <g stroke="null" id="svg_29" transform="matrix(1 0 0 1 1002.23 778.679)">
      <path stroke="null" d="m-34.75721,-412.00633c0,0 -14.72,58.65 -106.29,120.27l-25.68,6.02c0,0 -83.07,-151.48 -200.75,19.22c0,0 36.68,-21.36 135,4.65c0,0 -45.23,69.22 -136.34,67.1c0,0 87.31,104.75 220.18,-46.56c0,0 140.45,-54.31 151.84,-170.7l-37.96,0z" fill="rgb(247,76,0)" fill-rule="nonzero" id="svg_30"/>
     </g>
     <g stroke="null" id="svg_24">
      <g stroke="null" id="svg_27" transform="matrix(1.2275 0 0 1.22458 517.25 477.482)">
       <path stroke="null" d="m-43.00352,-196.84595c0,0 70.51,-31.22 89.76,38.46c0,0 20.15,81.22 -57.91,85.81c0,0 -99.54,-19.18 -31.85,-124.27" fill-rule="nonzero" id="svg_28"/>
      </g>
      <g stroke="null" id="svg_25" transform="matrix(1.2275 0 0 1.22458 560.719 400.441)">
       <path stroke="null" d="m-41.94352,-103.79595c0,18.07 -10.66,32.73 -23.8,32.73c-13.14,0 -23.79,-14.66 -23.79,-32.73c0,-18.08 10.65,-32.73 23.79,-32.73c13.14,0 23.8,14.65 23.8,32.73" fill="white" fill-rule="nonzero" id="svg_26"/>
      </g>
     </g>
    </g>
    <path stroke="#000" d="m195.38348,743.72459c-7.75,0 -8.78,-18.91 -14.03,-47.31c-5.25,-28.4 6.28,-47.31 14.03,-47.31c7.74,0 14.02,21.17 14.02,47.31c0,26.14 -6.28,47.31 -14.02,47.31z" fill="#f74c01" id="svg_22" opacity="undefined" stroke-width="0"/>
    <g stroke="null" id="svg_18" transform="matrix(4 0 0 4 -140 -100)"/>
    <g stroke="null" id="svg_13" transform="matrix(3.6 0 0 3.6 -70 -50)">
     <path stroke="null" d="m60.64485,198.46738l27.99,7.98l11.43,3.09q8.93,2.7 18.09,5.31c6.93,1.97 8.98,10.65 3.99,15.52c-3.38,3.3 -6.75,3 -11.38,1.72q-5.7,-1.56 -11.08,-3l-19.06,-5.05q-0.17,-0.11 -0.46,-0.34q-0.24,-0.19 -0.5,-0.26q-19.09,-5.18 -21.49,-5.83q-5.87,-1.59 -7.28,-7.49q-0.79,-3.34 1.01,-6.22q1.14,-1.81 1.82,-3.12l6.92,-2.31z" fill="#000000" id="svg_17"/>
     <path stroke="null" d="m267.54485,247.01738a59.44,59.44 0 0 1 -59.44,59.44a59.44,59.44 0 0 1 -59.44,-59.44a59.44,59.44 0 0 1 59.44,-59.44a59.44,59.44 0 0 1 59.44,59.44zm-9.76,-0.05a49.66,49.66 0 0 0 -49.66,-49.66a49.66,49.66 0 0 0 -49.66,49.66a49.66,49.66 0 0 0 49.66,49.66a49.66,49.66 0 0 0 49.66,-49.66z" fill="#000000" id="svg_16"/>
     <rect transform="rotate(15.2 137.91 226.848)" stroke="null" fill="#000000" height="32.56" id="svg_15" rx="5.28" width="10.92" x="132.45485" y="210.56738"/>
     <path stroke="null" d="m182.25485,222.20738q-1.67,1.86 -2.18,2.3q-0.38,0.32 -0.88,0.23c-2.85,-0.53 -4.21,-2.81 -2.29,-5.31c5.66,-7.4 15.46,-12.31 24.39,-13.71c15.87,-2.5 30.18,0.98 39.62,15.06q7.01,10.46 9.06,25.02a2.53,2.53 0 0 1 -1.77,2.77l-0.35,0.11a2.77,2.76 76.6 0 1 -3.53,-2.18c-1.75,-10.13 -4.83,-18.53 -10.99,-26.01c-7.95,-9.65 -21.01,-10.96 -32.49,-8.61c-7.04,1.44 -13.75,4.93 -18.59,10.33z" fill="#000000" id="svg_14"/>
    </g>
    <path stroke="#000" d="m124.10348,729.54459c-13.53,0 -24.49,-20.36 -24.49,-45.5c0,-25.14 10.96,-45.5 24.49,-45.5c13.52,0 32.43,25.47 24.48,45.5c-7.94,20.03 -10.96,45.5 -24.48,45.5z" fill="#f74c01" id="svg_12" opacity="undefined" stroke-width="0"/>
    <ellipse stroke="#000" cx="132.28348" cy="743.04459" fill="#f74c01" id="svg_11" rx="25.51" ry="41.82" stroke-width="0"/>
    <path stroke="#000" d="m199.41348,664.20459c-11.49,0 -20.8,-13.83 -20.8,-30.9c0,-17.07 9.31,-41.96 20.8,-41.96c11.49,0 20.8,24.89 20.8,41.96c0,17.07 -9.31,30.9 -20.8,30.9z" fill="#f74c01" id="svg_10" opacity="undefined" stroke-width="0"/>
    <path stroke="#000" d="m189.10348,605.25459c-6.73,0 -12.19,-10.82 -12.19,-24.17c0,-13.36 7.6,-28.65 12.19,-24.18c4.59,4.47 12.19,10.82 12.19,24.18c0,13.35 -5.46,24.17 -12.19,24.17z" fill="#f74c01" id="svg_9" opacity="undefined" stroke-width="0"/>
    <path stroke="#000" d="m131.41348,648.27459c-8.06,0 -14.6,-15.43 -14.6,-34.48c0,-19.05 7.18,-32.33 14.6,-34.47c7.42,-2.14 12.67,17.57 14.6,34.47c1.93,16.91 -6.54,34.48 -14.6,34.48z" fill="#f74c01" id="svg_8" opacity="undefined" stroke-width="0"/>
    <path stroke="#000" d="m52.28348,-87.63541c-0.39,-0.29 -0.53,-0.47 -0.53,-0.69c0,-0.21 0.17,-0.4 0.35,-0.4c0.09,0 0.28,0.07 0.35,0.13c0.03,0.03 0.05,0.03 0.12,-0.02c0.21,-0.14 0.41,-0.14 0.54,-0.01c0.21,0.22 0.17,0.48 -0.11,0.74c-0.15,0.15 -0.47,0.4 -0.51,0.4c-0.01,0 -0.1,-0.07 -0.21,-0.15l0,0z" fill="#f74c01" id="svg_7" stroke-width="0"/>
    <path transform="rotate(-120 971.147 1207.88)" stroke="#000" d="m968.75348,1244.38459c-9.34,3.28 -20.83,-16.42 -20.83,-36.69c0,-20.28 9.32,-36.7 20.83,-36.7c11.51,0 26.73,23.21 25.55,39.08c-1.18,15.87 -16.2,31.03 -25.55,34.31z" fill="#f74c01" id="svg_6" opacity="undefined" stroke-width="0"/>
    <path transform="rotate(-105 911.186 1220.08)" stroke="#000" d="m910.76348,1260.95459c-11.51,0 -20.84,-18.12 -20.84,-40.5c0,-22.37 10.17,-35.72 20.84,-40.5c10.67,-4.77 25.39,13.58 20.83,40.5c-4.55,26.92 -9.32,40.5 -20.83,40.5z" fill="#f74c01" id="svg_5" opacity="undefined" stroke-width="0"/>
    <path transform="rotate(-84 1013.76 1128.5)" stroke="#000" d="m1015.35348,1161.78459c-22.55,5.63 -28.11,-15.14 -24.63,-33.83c3.48,-18.69 12.25,-33.69 24.63,-33.69c12.38,0 22.41,15.1 22.41,33.76c0,18.65 0.14,28.13 -22.41,33.76z" fill="#f74c01" id="svg_4" opacity="undefined" stroke-width="0"/>
    <path transform="rotate(-84 966.058 1126.33)" stroke="#000" d="m967.72348,1167.53459c-11.51,0 -20.45,-17.6 -23.72,-40.61c-3.27,-23.01 12.21,-41.8 23.72,-41.8c11.51,0 20.83,18.44 20.83,41.2c0,22.77 -9.32,41.21 -20.83,41.21z" fill="#f74c01" id="svg_3" opacity="undefined" stroke-width="0"/>
    <path transform="rotate(-103 905.567 1137.09)" stroke="#000" d="m909.09348,1172.41459c-6.96,0 -19.65,-13.88 -19.65,-32.87c0,-19 8.45,-45.05 19.65,-35.9c11.2,9.15 12.6,15.39 12.6,34.39c0,18.99 -5.64,34.38 -12.6,34.38z" fill="#f74c01" id="svg_2" opacity="undefined" stroke-width="0"/>
    <path transform="rotate(-120 1028.2 1180.92)" stroke="#000" d="m1025.81348,1220.34459c-9.35,3.54 -20.84,-17.74 -20.84,-39.63c0,-21.89 9.32,-39.62 20.84,-39.62c11.51,0 26.72,25.06 25.54,42.2c-1.18,17.13 -16.2,33.5 -25.54,37.05z" fill="#f74c01" id="svg_1" opacity="undefined" stroke-width="0"/>
   </g>
  </g>
 </g>

</svg>